<svg xmlns="http://www.w3.org/2000/svg" xml:space="preserve" version="1.2" viewBox="0 0 211.5 39"><g fill-rule="evenodd"><path fill="#FFF" d="M195 17.5h4.8c.9 0 1.6-.2 2.1-.7.5-.5.8-1.1.8-1.9 0-.8-.3-1.4-.8-1.9s-1.2-.7-2.1-.7H195v5.2zm15.8 9.1.6 6.5H203l-.5-5.7c-.2-2.5-1.5-3.8-3.8-3.8H195v9.5h-8.6V5.9h15.8c2.6 0 4.8.7 6.5 2.2a7.3 7.3 0 0 1 2.5 5.8c0 3.2-1.5 5.4-4.6 6.6 2.5.8 3.9 2.9 4.2 6.1m-45.3-1.4c.9 1.3 2.2 1.9 4 1.9 1.7 0 3.1-.6 4-1.9.9-1.3 1.4-3.2 1.4-5.7 0-2.4-.5-4.3-1.4-5.6-.9-1.3-2.3-1.9-4-1.9-1.7 0-3.1.6-4 1.9-.9 1.3-1.4 3.2-1.4 5.6 0 2.6.4 4.5 1.4 5.7M128.9 9c-2.6 2.6-3.9 6.1-3.9 10.5s1.3 7.8 3.9 10.5c2.5 2.6 5.9 3.9 10.1 3.9 4.2 0 7.5-1.3 10.1-3.9 3.8-3.9 3.8-7.9 3.8-12.7h-13.2v5.5h4.3c-.2 1-.6 1.8-1 2.4-.9 1.3-2.3 1.9-4 1.9-1.7 0-3.1-.6-4-1.9-.9-1.2-1.4-3.1-1.4-5.7 0-2.4.5-4.3 1.4-5.6.9-1.3 2.3-1.9 4-1.9 1.7 0 3.1.6 4 1.9.3.4.5.8.7 1.3h8.8c-.6-2.4-1.7-4.4-3.3-6.1-2.6-2.6-5.9-3.9-10.1-3.9-4.3-.1-7.6 1.2-10.2 3.8m-64 8.5h4.8c.9 0 1.6-.2 2.1-.7.5-.5.8-1.1.8-1.9 0-.8-.3-1.4-.8-1.9s-1.2-.7-2.1-.7h-4.8v5.2zm15.8 9.1.6 6.5h-8.5l-.5-5.7c-.2-2.5-1.5-3.8-3.8-3.8h-3.7v9.5h-8.6V5.9H72c2.6 0 4.8.7 6.5 2.2a7.3 7.3 0 0 1 2.5 5.8c0 3.2-1.5 5.4-4.6 6.6 2.6.8 4 2.9 4.3 6.1M8.6 22.7v3.1h15v7.3H0V5.9h23.1V13H8.6v3H21v6.7H8.6zm21-13.6c-2.6 2.6-3.9 6.1-3.9 10.5S27 27.4 29.6 30c2.5 2.6 5.9 3.9 10.1 3.9s7.5-1.3 10.1-3.9c3.8-3.9 3.8-7.9 3.8-12.7H40.4v5.5h4.3c-.2 1-.6 1.8-1 2.4-.9 1.3-2.3 1.9-4 1.9-1.7 0-3.1-.6-4-1.9-.9-1.2-1.4-3.1-1.4-5.7 0-2.4.5-4.3 1.4-5.6.9-1.3 2.3-1.9 4-1.9 1.7 0 3.1.6 4 1.9.3.4.5.8.7 1.3h8.8c-.6-2.4-1.7-4.4-3.3-6.1-2.6-2.6-5.9-3.9-10.1-3.9s-7.7 1.3-10.2 3.9m150 20.9c-2.6 2.6-5.9 3.9-10.1 3.9-4.2 0-7.5-1.3-10.1-3.9-2.6-2.6-3.9-6.1-3.9-10.5s1.3-7.8 3.9-10.5c2.5-2.6 5.9-3.9 10.1-3.9 4.2 0 7.5 1.3 10.1 3.9 2.5 2.6 3.8 6.1 3.8 10.5 0 4.5-1.3 8-3.8 10.5"/><path fill="#FFB800" d="M90.7 7.4c4-4 9.5-5.6 14.8-4.8V.2c-5.8-.8-11.9 1-16.4 5.5-7.6 7.6-7.6 19.9 0 27.6 7.6 7.6 19.9 7.6 27.6 0 4.4-4.4 6.2-10.3 5.6-16h-2.4c.7 5.1-.9 10.4-4.9 14.4-6.7 6.7-17.5 6.7-24.2 0-6.8-6.8-6.8-17.6-.1-24.3"/><path fill="#FFB800" d="M94.1 10.7c3.1-3.1 7.4-4.2 11.4-3.4V4.9a14.8 14.8 0 0 0-13.1 25c5.8 5.8 15.1 5.8 20.9 0 3.5-3.5 4.8-8.2 4.2-12.7H115c.7 3.9-.4 8-3.4 11-4.9 4.8-12.7 4.8-17.6 0-4.8-4.8-4.8-12.7.1-17.5"/><path fill="#FFF" d="M112.7 20.7c.5-3.3-.7-6.7-3.5-9-4.3-3.6-10.6-3-14.2 1.3-3.6 4.3-3 10.6 1.3 14.2a10 10 0 0 0 9.5 1.9l-.7-2.2c-2.4.8-5.2.3-7.3-1.4a7.56 7.56 0 0 1-2.7-4.7h17.6zm-5-7.1c1.5 1.2 2.4 2.9 2.7 4.7H95.2c.2-1.3.8-2.6 1.7-3.7 2.7-3.3 7.5-3.8 10.8-1m8.4.9c-1.4-3.7-4.3-6.7-7.9-8.2v1c3.1 1.4 5.6 4 6.9 7.1h1zM108.2.8c3.1.9 6 2.5 8.4 5 2.5 2.5 4.2 5.6 5.1 8.8h-2.4c-.8-2.6-2.2-5.1-4.3-7.1-2-2-4.3-3.3-6.7-4.2V.8z"/></g></svg>