<svg xmlns="http://www.w3.org/2000/svg" xml:space="preserve" baseProfile="tiny" version="1.2" viewBox="0 0 599.6 191.8"><path fill="#00AF89" fill-rule="evenodd" d="M105 191.8c52-3 93-44.9 93-95.9L197.6 0H99C44.4 0 0 42.9 0 95.9v95.9M234 19.5h26.4v101.9H234zm144.6 93.3a79.4 79.4 0 0 1-39 10.4c-7.5.1-14.9-1.2-22-3.7a50 50 0 0 1-29.2-28 56.6 56.6 0 0 1-4.1-21.1c0-15.9 5.3-28.6 15.8-38.3s24.5-14.5 41.9-14.5a78.5 78.5 0 0 1 35.6 8.3v24c-5.3-3.5-11-6.3-17-8.3a54.5 54.5 0 0 0-17-2.7 33.9 33.9 0 0 0-24.3 8.4 30 30 0 0 0-8.8 23.2c0 9.5 2.8 17.1 8.5 22.8a30.5 30.5 0 0 0 22.7 8.5c6.3 0 12.5-1.1 18.4-3.2a79.3 79.3 0 0 0 18.5-9.6v23.8zm119.2-93.3v58.3c0 14.3-4.2 25.4-12.7 33.4s-20.3 12-35.5 12c-15.1 0-27-4-35.5-12a43.2 43.2 0 0 1-12.7-33.4V19.5h25.7v57.3c0 8.1 1.9 14.3 5.8 18.6 3.9 4.3 9.5 6.4 16.9 6.4s13-2.1 16.8-6.4 5.7-10.5 5.7-18.6V19.5h25.5zm26.3 93.8V90.5c6.1 4 12.6 7.3 19.4 10a47.2 47.2 0 0 0 15.3 2.9c5 0 8.8-.8 11.4-2.3a8 8 0 0 0 2.6-11.1c-.3-.6-.8-1.1-1.2-1.6a37.3 37.3 0 0 0-11.2-5.3c-14.5-5.1-24.5-10.3-30-15.6s-8.2-12.1-8-20.3c0-8.7 3.6-15.7 10.7-21.2s16.4-8.2 27.7-8.1a72.6 72.6 0 0 1 34.7 8.3v20.9c-5.9-3.1-12.1-5.7-18.4-7.7a50 50 0 0 0-14.9-2.5c-4.8 0-8.5.7-11 2.2a6.6 6.6 0 0 0-3.9 6c0 2 1.2 4.1 3.4 6s5.8 3.7 10.3 5.4l4.5 1.7c9.7 3.6 16.7 6.7 20.9 9.2 4.2 2.5 7.7 6.2 10 10.5 2.4 4.6 3.5 9.8 3.4 15 0 9.4-3.6 16.8-10.7 22.2-7.1 5.4-17 8.1-29.6 8a66.4 66.4 0 0 1-35.3-9.8h-.1z"/><path fill="#0D9C80" fill-rule="evenodd" d="M197.6 0H98.8C44.2 0 0 42.9 0 95.9v95.9L197.6 0z"/><path d="M197.6 0 0 191.8"/><path fill="#0F967C" d="M0 191.8v-1.4L196.2 0h1.4v1.4L1.4 191.8z"/><path fill="#FFF" fill-rule="evenodd" d="M106.7 99h-32v57.5H48.4l-.2-72.8c0-26.6 24.1-48.1 51.9-48.2h50v26.8H89.3c-6 1-9.9 5.1-11 11.9l46.5.4c-.2 11.8-5.7 20.3-18.1 24.5V99z"/></svg>