<svg xmlns="http://www.w3.org/2000/svg" viewBox="0 0 106 38"><path fill="url(#a)" d="M0 16.76c0-2.83 2.3-5.12 5.12-5.12h5.12v5.12c0 2.83-2.3 5.12-5.12 5.12H0v-5.12Z"/><path fill="url(#b)" d="M0 32.62c0-2.82 2.3-5.11 5.12-5.11h5.12v5.11c0 2.83-2.3 5.12-5.12 5.12H0v-5.12Z"/><path fill="url(#c)" d="M10.75 22.9c0-3.4 2.75-6.14 6.14-6.14h14.33v4.1a6.13 6.13 0 0 1-6.14 6.13H10.75V22.9Z"/><path fill="url(#d)" d="M10.75 7.04c0-3.4 2.75-6.15 6.14-6.15h19.45V5a6.14 6.14 0 0 1-6.15 6.14H10.75v-4.1Z"/><path fill="#fff" d="M45.87 32.53V20.46h-2.61v-3.72h2.61v-2.32c0-1.18.35-2.12 1.05-2.82.7-.7 1.63-1.05 2.8-1.05h2.92v3.4h-1.85a1.05 1.05 0 0 0-1.08 1.08v1.71h8.77v15.8h-3.84V20.45h-4.92v12.07h-3.85Zm8.61-18.27v-3.71h4.15v3.71h-4.15Zm16.82 12h3.88a9.2 9.2 0 0 1-2.02 4.08 6.26 6.26 0 0 1-2.27 1.6c-.93.4-1.99.6-3.17.6a7.85 7.85 0 0 1-5.82-2.33 8.27 8.27 0 0 1-2.27-5.99 8.2 8.2 0 0 1 2.27-5.96 7.8 7.8 0 0 1 5.82-2.35c1.18 0 2.24.2 3.17.63.96.4 1.71.92 2.27 1.57a8.88 8.88 0 0 1 2.02 3.92H71.3c-.63-1.68-1.82-2.51-3.58-2.51a3.9 3.9 0 0 0-2.99 1.31 4.86 4.86 0 0 0-1.21 3.4c0 1.37.4 2.5 1.21 3.38a3.9 3.9 0 0 0 2.99 1.32c1.82 0 3.02-.9 3.58-2.67Zm4.88-.38v-9.43h3.95v9.12c0 1.01.32 1.84.95 2.48.65.62 1.5.93 2.52.93 1.03 0 1.86-.31 2.5-.93.65-.64.97-1.47.97-2.48v-9.12h3.95v15.77H87.4l-.32-1.54h-.15c-.26.3-.61.62-1.08.93-.96.61-2.08.92-3.34.92-1.83 0-3.35-.6-4.55-1.82a6.71 6.71 0 0 1-1.77-4.83Zm15.84 1.48h3.7c0 .48.27.94.8 1.38a3.6 3.6 0 0 0 2.3.66c1.95 0 2.93-.58 2.93-1.73 0-.5-.16-.89-.47-1.16-.3-.3-.87-.5-1.7-.63l-2.46-.4c-3.4-.57-5.1-2.08-5.1-4.55 0-1.4.59-2.58 1.76-3.55 1.17-.98 2.8-1.47 4.88-1.47s3.7.58 4.88 1.73c1.17 1.15 1.76 2.3 1.76 3.45h-3.7c0-.53-.27-1-.81-1.42a3.37 3.37 0 0 0-2.13-.62c-.89 0-1.58.18-2.07.56-.47.36-.71.8-.71 1.32 0 .77.72 1.26 2.16 1.47l2.63.41c3.29.5 4.94 2.12 4.94 4.86 0 1.4-.59 2.56-1.76 3.48-1.16.92-2.83 1.38-5.04 1.38-1.1 0-2.1-.14-2.96-.43a6.5 6.5 0 0 1-1.98-1.04 6.22 6.22 0 0 1-1.73-2.73 4.8 4.8 0 0 1-.12-.97Z"/><defs><linearGradient id="a" x1="47.59" x2="-2.05" y1="-17.79" y2="37.74" gradientUnits="userSpaceOnUse"><stop stop-color="#3F93FF"/><stop offset="1" stop-color="#A1FF8B"/></linearGradient><linearGradient id="b" x1="47.59" x2="-2.05" y1="-17.79" y2="37.74" gradientUnits="userSpaceOnUse"><stop stop-color="#3F93FF"/><stop offset="1" stop-color="#A1FF8B"/></linearGradient><linearGradient id="c" x1="47.59" x2="-2.05" y1="-17.79" y2="37.74" gradientUnits="userSpaceOnUse"><stop stop-color="#3F93FF"/><stop offset="1" stop-color="#A1FF8B"/></linearGradient><linearGradient id="d" x1="47.59" x2="-2.05" y1="-17.79" y2="37.74" gradientUnits="userSpaceOnUse"><stop stop-color="#3F93FF"/><stop offset="1" stop-color="#A1FF8B"/></linearGradient></defs></svg>