<svg fill="white" xmlns="http://www.w3.org/2000/svg" xml:space="preserve" viewBox="0 0 320 64.7"><circle cx="5" cy="4.9" r="5" class="st0"/><circle cx="16" cy="4.9" r="5" class="st0"/><circle cx="27" cy="4.9" r="5" class="st0"/><circle cx="38" cy="4.9" r="5" class="st0"/><circle cx="49" cy="4.9" r="5" class="st0"/><circle cx="60" cy="4.9" r="5" class="st0"/><circle cx="5" cy="15.9" r="5" class="st0"/><circle cx="16" cy="15.9" r="5" class="st0"/><circle cx="27" cy="15.9" r="5" class="st0"/><circle cx="38" cy="15.9" r="5" class="st0"/><circle cx="49" cy="15.9" r="5" class="st0"/><circle cx="60" cy="15.9" r="5" class="st0"/><circle cx="5" cy="26.9" r="5" class="st0"/><circle cx="16" cy="26.9" r="5" class="st0"/><circle cx="49" cy="26.9" r="5" class="st0"/><circle cx="60" cy="26.9" r="5" class="st0"/><circle cx="5" cy="37.9" r="5" class="st0"/><circle cx="16" cy="37.9" r="5" class="st0"/><circle cx="49" cy="37.9" r="5" class="st0"/><circle cx="60" cy="37.9" r="5" class="st0"/><circle cx="5" cy="48.9" r="5" class="st0"/><circle cx="16" cy="48.9" r="5" class="st0"/><circle cx="27" cy="48.9" r="5" class="st0"/><circle cx="38" cy="48.9" r="5" class="st0"/><circle cx="49" cy="48.9" r="5" class="st0"/><circle cx="60" cy="48.9" r="5" class="st0"/><circle cx="5" cy="59.9" r="5" class="st0"/><circle cx="16" cy="59.9" r="5" class="st0"/><circle cx="27" cy="59.9" r="5" class="st0"/><circle cx="38" cy="59.9" r="5" class="st0"/><circle cx="49" cy="59.9" r="5" class="st0"/><circle cx="60" cy="59.9" r="5" class="st0"/><path d="M75 0h6.3v32.6H75V0zm2.9 13.5h19.3v5.9H77.9v-5.9zM93.2 0h6.3v32.6h-6.3V0zm13.5 0h6.3v32.6h-6.3V0zm2.3 0h20v5.9h-20V0zm0 13.5h17.5v5.9H109v-5.9zm0 13.2h20v5.9h-20v-5.9zm34-14.2L150.4 0h6.6l-11 18.4-8.4 14.2H131l12-20.1zm-.1 6.8-.6-1.1-11-18.2h6.6l7.4 12.3.9 1.5 11.3 18.8h-6.6l-8-13.3zM177 18v5.9h-16.2V18H177zm11.4 13.5a9 9 0 0 1-4.1-4.1c-.9-1.8-1.4-4-1.4-6.6v-8.9c0-2.6.5-4.8 1.4-6.6a9.8 9.8 0 0 1 4.1-4.2c1.8-1 4-1.4 6.5-1.4 2.1 0 3.9.4 5.6 1.3 1.6.9 3 2.2 4.1 3.8 1.1 1.7 1.8 3.7 2.2 6.1h-6.5c-.2-1.1-.6-2-1.1-2.8a4.8 4.8 0 0 0-4.2-2.3c-1.2 0-2.2.2-3 .7-.8.5-1.4 1.2-1.9 2.1a8 8 0 0 0-.7 3.3v8.9a6 6 0 0 0 .7 3.2c.4.9 1.1 1.6 1.9 2.1.8.5 1.8.7 3 .7a4.9 4.9 0 0 0 4.3-2.3c.5-.8.9-1.7 1.1-2.8h6.5c-.4 2.4-1.2 4.4-2.2 6.1a10 10 0 0 1-4.1 3.8c-1.6.9-3.5 1.3-5.6 1.3-2.6 0-4.8-.4-6.6-1.4zM212 0h6.3v32.6H212V0zm2.5 13.6H226c.6 0 1.2-.2 1.7-.5s.9-.8 1.1-1.3c.3-.6.4-1.3.4-2 0-.8-.1-1.4-.4-2-.3-.6-.6-1-1.1-1.3-.5-.3-1.1-.5-1.7-.5h-11.5V0h12c1.8 0 3.4.4 4.8 1.2 1.4.8 2.5 1.9 3.2 3.4.8 1.5 1.1 3.2 1.1 5.1a12 12 0 0 1-1.1 5.1 8.1 8.1 0 0 1-3.2 3.4c-1.4.8-3 1.2-4.8 1.2h-12v-5.8zm7 4.9 6.7-1 8.9 15.1h-7.6l-8-14.1zM250.8 0h4l12.7 32.6h-6.7l-7.9-22.3-7.9 22.3h-6.7L250.8 0zm-6.6 21.5h17.5v5.9h-17.5v-5.9zM271.6 0h6.3v32.6h-6.3V0zm2.3 0h19.5v5.9h-19.5V0zm0 13.8h17v5.9h-17v-5.9zM295.7 0H320v5.9h-24.3V0zm9 2.7h6.3v29.9h-6.3V2.7zM77.3 64.3c-.8-.4-1.3-1-1.7-1.8a6 6 0 0 1-.6-2.8V49.2c0-1.1.2-2.1.6-2.9.4-.8 1-1.4 1.7-1.8.7-.4 1.7-.6 2.7-.6s2 .2 2.7.6c.8.4 1.3 1 1.7 1.8.4.8.6 1.7.6 2.8v.9h-2.1v-.8c0-.7-.1-1.3-.3-1.8-.2-.5-.5-.9-1-1.1-.4-.3-1-.4-1.6-.4a3 3 0 0 0-1.6.4c-.4.3-.8.6-1 1.1-.2.5-.3 1.1-.3 1.8v10.5c0 .7.1 1.3.3 1.8.2.5.6.9 1 1.1.4.3.9.4 1.6.4a3 3 0 0 0 1.6-.4c.4-.3.8-.6 1-1.1.2-.5.3-1.1.3-1.8V59H85v.7a6 6 0 0 1-.6 2.8c-.4.8-1 1.4-1.7 1.8a6 6 0 0 1-2.7.6 6 6 0 0 1-2.7-.6zm10.1-20.2h2.1v20.6h-2.1V44.1zm1.3 10h4c.6 0 1.2-.1 1.7-.3.5-.2.8-.6 1.1-1 .2-.4.4-1 .4-1.6v-2.1c0-.6-.1-1.2-.4-1.6-.2-.5-.6-.8-1.1-1-.5-.2-1-.4-1.7-.4h-4v-1.9h3.8c1.1 0 2.1.2 2.9.5a4 4 0 0 1 1.8 1.6c.4.7.6 1.5.6 2.5v2.4c0 1-.2 1.9-.6 2.6-.4.7-1 1.3-1.8 1.6-.8.4-1.8.6-2.9.6h-3.8v-1.9zm4.5 1.3 1.9-.7 3.4 10H96l-2.8-9.3zm11.2-11.2h2.6l5 20.6h-2.4l-3.9-18.3-3.9 18.3h-2.4l5-20.6zm-2.3 13.6h7.3v1.9h-7.3v-1.9zm11.8-13.6h2.1v20.6h-2.1V44.2zm1.4 0h7.8v1.9h-7.8v-1.9zm0 9.5h7.1v1.9h-7.1v-1.9zm9.9-9.5h10.5v1.9h-10.5v-1.9zm4.2 1.6h2.1v18.9h-2.1V45.8zm13.9-1.6h2l6.8 16.9-.4.4V44.2h2.1v20.6h-2L145 47.9l.4-.4v17.3h-2.1V44.2zm16 20.5h-2.1V44.2h2.1v20.5zm5.6-.4c-.8-.4-1.3-1-1.7-1.8a6 6 0 0 1-.6-2.8V49.2c0-1.1.2-2.1.6-2.9.4-.8 1-1.4 1.7-1.8.7-.4 1.7-.6 2.7-.6 1.1 0 2 .2 2.7.6.8.4 1.3 1 1.7 1.8.4.8.6 1.7.6 2.8v.9h-2.1v-.8c0-.7-.1-1.3-.3-1.8-.2-.5-.5-.9-1-1.1-.4-.3-1-.4-1.6-.4a3 3 0 0 0-1.6.4c-.4.3-.8.6-1 1.1-.2.5-.3 1.1-.3 1.8v10.5c0 .7.1 1.3.3 1.8.2.5.6.9 1 1.1.4.3.9.4 1.6.4a3 3 0 0 0 1.6-.4c.4-.3.8-.6 1-1.1.2-.5.3-1.1.3-1.8V59h2.1v.7a6 6 0 0 1-.6 2.8c-.4.8-1 1.4-1.7 1.8a6 6 0 0 1-2.7.6 6 6 0 0 1-2.7-.6zM175 44.2h2.1v20.6H175V44.2zm1.5 0h7.8v1.9h-7.8v-1.9zm0 9.4h7.1v1.9h-7.1v-1.9zm0 9.2h7.8v1.9h-7.8v-1.9zm23.9-6.4v1.9h-7.6v-1.9h7.6zm9.2-12.2h2.1v20.6h-2.1V44.2zm1.6 10.7h4.6a2 2 0 0 0 1.1-.3c.3-.2.6-.5.7-.8.2-.4.2-.8.2-1.3v-4l-.2-1.3c-.2-.4-.4-.6-.7-.8a2 2 0 0 0-1.1-.3h-4.6v-1.9h4.5c.9 0 1.7.2 2.3.5.6.3 1.1.8 1.5 1.5.3.6.5 1.4.5 2.3v4c0 .9-.2 1.7-.5 2.3a3 3 0 0 1-1.5 1.4c-.6.3-1.4.5-2.3.5h-4.5v-1.8zm11.4-10.7h2.1v20.6h-2.1V44.2zm1.5 18.6h7.5v1.9h-7.5v-1.9zm14-18.6h2.6l5 20.6h-2.4l-3.9-18.3-3.9 18.3h-2.4l5-20.6zm-2.3 13.6h7.3v1.9h-7.3v-1.9zm15.4-1.7v8.6h-2.1v-8.6l-4.6-11.9h2.2l3.5 9.6 3.4-9.6h2.2l-4.6 11.9zm10.4-11.9H272v1.9h-10.5v-1.9zm4.1 1.6h2.1v18.9h-2.1V45.8zm15.8-1.6h1.8l2.9 18.3 2.3-18.3h2.3l-3.2 20.6h-2.9l-2.2-15.1-2.4 15.1h-2.9L274 44.2h2.3l2.3 18.3 2.9-18.3zM295 64.7h-2.1V44.2h2.1v20.5zm5.6-.4c-.8-.4-1.3-1-1.7-1.8a6 6 0 0 1-.6-2.8V49.2c0-1.1.2-2.1.6-2.9.4-.8 1-1.4 1.7-1.8.7-.4 1.7-.6 2.7-.6s2 .2 2.7.6c.8.4 1.3 1 1.7 1.8.4.8.6 1.7.6 2.8v.9h-2.1v-.8c0-.7-.1-1.3-.3-1.8-.2-.5-.5-.9-1-1.1-.4-.3-1-.4-1.6-.4a3 3 0 0 0-1.6.4c-.4.3-.8.6-1 1.1-.2.5-.3 1.1-.3 1.8v10.5c0 .7.1 1.3.3 1.8.2.5.6.9 1 1.1.4.3.9.4 1.6.4a3 3 0 0 0 1.6-.4c.4-.3.8-.6 1-1.1.2-.5.3-1.1.3-1.8V59h2.1v.7a6 6 0 0 1-.6 2.8c-.4.8-1 1.4-1.7 1.8a6 6 0 0 1-2.7.6 6 6 0 0 1-2.7-.6zm10.1-20.1h2.1v20.6h-2.1V44.2zm1.5 0h7.8v1.9h-7.8v-1.9zm0 9.4h7.1v1.9h-7.1v-1.9zm0 9.2h7.8v1.9h-7.8v-1.9z" class="st0"/></svg>