<svg xmlns="http://www.w3.org/2000/svg" xml:space="preserve" baseProfile="tiny" version="1.2" viewBox="0 0 215 45"><path fill="#FFF" d="M42.1 12.3 30.4 32.7l-5.9-10.2-5.9 10.2H6.9l5.9 10.1h23.4L48 22.5z"/><path fill="#858AE3" d="m24.5 22.5 5.9-10.2h11.7L36.2 2.2H12.8L1 22.5l5.9 10.2 11.7-20.4z"/><path fill="#FFF" d="M63.5 17.2c1-.5 2.2-.8 3.4-.8a8 8 0 0 1 8 8v10.4h-4.6V24.5c0-1.9-1.5-3.4-3.4-3.4a3.5 3.5 0 0 0-3.4 3.3v10.5h-4.6v-25h4.6v7.3zm20.6 11.1a4.8 4.8 0 0 0 4.3 2.5c1.3 0 2.5-.5 3.4-1.4l3.3 3.3a9.5 9.5 0 0 1-6.7 2.8c-5.2 0-9.5-4.3-9.5-9.5s3.9-9.5 8.8-9.5c6 0 8.9 3.7 8.9 8.3 0 1.3-.3 2.4-.8 3.5H84.1zm-.1-4.7h7.7c-.4-1.5-1.4-2.5-4-2.5-1.6 0-3 1-3.7 2.5zm21.3 2.4-6.6-9h5.8l3.7 5 3.7-5h5.8l-6.7 9 6.6 8.9h-5.8l-3.7-5-3.7 5h-5.8l6.7-8.9zm28.1 4.6a8 8 0 0 0 5.8-2.4l3.5 3.5a13.2 13.2 0 0 1-22.5-9.3 13.2 13.2 0 0 1 22.5-9.3l-3.5 3.5a8.2 8.2 0 0 0-14 5.8c0 4.5 3.6 8.2 8.2 8.2zm18.2 4.3H147V17h4.6v.8c1.4-.9 3-1.4 4.8-1.4V21a4.7 4.7 0 0 0-4.8 4.8v9.1zm26.6 0h-4.6v-.8a9.6 9.6 0 0 1-14.3-8.2c0-5.2 4.3-9.5 9.5-9.5 1.8 0 3.4.5 4.8 1.4V17h4.6v17.9zm-9.4-13.8c-2.7 0-4.8 2.1-4.8 4.8s2.1 4.8 4.8 4.8c2.7 0 4.8-2.1 4.8-4.8s-2.1-4.8-4.8-4.8zm28-4.1v4.6h-5.7v13.2h-4.6V21.7h-4.6V17h3.2a7.6 7.6 0 0 1 13.1-5.4l-3.3 3.3c-.5-.5-1.3-.9-2.1-.9a3 3 0 0 0-3 3h7zm2.2 0h4.6v-5h4.6v5h5.7v4.6h-5.7v5.7c0 1.9 1.5 3.4 3.4 3.4v4.6a8 8 0 0 1-8-8v-5.7H199V17z"/></svg>