<svg xmlns="http://www.w3.org/2000/svg" viewBox="0 0 512 512"><path fill="#fff" d="M204 229h62v54h54v62h-54v54h-62v-54h-54v-62h54z"/><path fill="#fff" d="M213 131q4 3 6 8l2 2 4 6-1 2-4 1-3 1h-2q-25 6-47 18l-2 1a159 159 0 0 0-51 45 166 166 0 0 0 14 219l3 3c33 32 79 44 125 43 42-1 88-17 118-48l4-2c-6 21-33 39-51 50l-8 4-2 1c-38 20-85 24-126 14l-3-1q-47-11-83-46l-2-2a192 192 0 0 1-1-265q38-39 91-51l3-1c12-3 12-3 16-2M447 36h15q0 12-3 23l-1 2q-9 33-32 58l-2 3a113 113 0 0 1-85 34h-4c-22 0-22 0-25-3q1-10 4-21l1-3c9-31 23-61 52-77q38-18 80-16"/><path fill="#fff" d="m287 173 3 1c38 9 73 30 94 65 19 32 24 70 15 106a159 159 0 0 1-188 116q-24-8-44-24l-3-2-9-10 1-2 2 1c23 20 54 30 85 28 39-4 77-22 103-52q20-23 29-53l1-3q13-49-12-96l-11-16-2-2c-25-30-65-44-102-48a183 183 0 0 0-91 17c29-31 90-35 129-26M229 9c21 3 42 21 57 36l2 2q20 24 19 55v2q0 25-7 49-8-1-17-5l-3-1q-37-17-52-55-12-32-5-65v-2q2-9 6-16"/></svg>